<svg width="137" height="42" viewBox="0 0 137 42" fill="none" xmlns="http://www.w3.org/2000/svg">
<path d="M29.768 0.528C29.576 0.335999 29.32 0.207996 29 0.207996H2.568C1.928 0.207996 1.48 0.655998 1.48 1.296V2H1.992V1.296C1.992 0.975998 2.248 0.719997 2.568 0.719997H29C29.128 0.719997 29.32 0.783997 29.384 0.911999C29.512 0.975998 29.576 1.168 29.576 1.296L29.512 8.464C29.512 8.784 29.256 9.04 28.936 9.04H28.232V9.552H28.936C29.576 9.552 30.024 9.04 30.024 8.464L30.088 1.296C30.088 0.975998 29.96 0.719997 29.768 0.528ZM1.48 39.632V2H1.032C0.584 2 0.2 2.384 0.2 2.832V41.168C0.2 41.616 0.584 42 1.032 42H9.352C9.8 42 10.12 41.616 10.12 41.168V40.72H2.568C1.928 40.72 1.48 40.208 1.48 39.632ZM2.568 40.208H10.12V27.472H11.4V25.68H21.832V19.408C21.832 18.96 21.448 18.576 21 18.576H10.12V10.832H11.4V9.04H28.232L28.296 2.832C28.296 2.576 28.232 2.384 28.04 2.256C27.912 2.064 27.72 2 27.464 2H1.992V39.632C1.992 39.952 2.248 40.208 2.568 40.208ZM11.912 10.832H27.4C27.848 10.832 28.232 10.448 28.232 10V9.552H11.912V10.832ZM11.4 17.296H22.536C22.856 17.296 23.112 17.552 23.112 17.872V25.104C23.112 25.424 22.856 25.68 22.536 25.68H21.832V26.192H22.536C23.112 26.192 23.624 25.744 23.624 25.104V17.872C23.624 17.296 23.112 16.784 22.536 16.784H11.912V10.832H11.4V17.296ZM11.912 27.472H21C21.448 27.472 21.832 27.088 21.832 26.64V26.192H11.912V27.472ZM11.4 39.632C11.4 39.952 11.144 40.208 10.888 40.208H10.12V40.72H10.888C11.464 40.72 11.912 40.208 11.912 39.632V27.472H11.4V39.632ZM59.2435 40.72H35.6915C35.1155 40.72 34.6035 40.208 34.6035 39.632V1.296C34.6035 0.655998 35.1155 0.207996 35.6915 0.207996H44.0115C44.5875 0.207996 45.0995 0.655998 45.0995 1.296V30.992H59.2435C59.8195 30.992 60.3315 31.504 60.3315 32.08V39.632C60.3315 40.208 59.8195 40.72 59.2435 40.72ZM35.6915 0.719997C35.3715 0.719997 35.1155 0.975998 35.1155 1.296V39.632C35.1155 39.952 35.3715 40.208 35.6915 40.208H59.2435C59.5635 40.208 59.8195 39.952 59.8195 39.632V32.08C59.8195 31.76 59.5635 31.504 59.2435 31.504H44.5875V1.296C44.5875 0.975998 44.3315 0.719997 44.0115 0.719997H35.6915ZM34.2195 42H57.7715C58.2195 42 58.6035 41.616 58.6035 41.168V33.616C58.6035 33.168 58.2195 32.784 57.7715 32.784H43.3715V2.832C43.3715 2.384 42.9875 2 42.5395 2H34.2195C33.7715 2 33.3875 2.384 33.3875 2.832V41.168C33.3875 41.616 33.7715 42 34.2195 42ZM67.3805 0.719997H95.4125C95.7325 0.719997 95.9885 0.975998 95.9885 1.232V8.464C95.9885 8.784 95.7325 9.04 95.4125 9.04H94.7085V9.552H95.4125C95.9885 9.552 96.5005 9.04 96.5005 8.464V1.232C96.5005 0.655998 95.9885 0.207996 95.4125 0.207996H67.3805C66.5485 0.207996 66.3565 0.975998 66.2925 1.744H66.8045C66.9325 0.719997 67.1885 0.719997 67.3805 0.719997ZM66.9325 40.656C66.8685 40.592 66.8045 40.592 66.8045 40.592V40.72H66.2925V2.384V1.744H65.8445C65.3325 1.744 65.0125 2.064 65.0125 3.664V42C65.0125 41.36 65.3325 41.744 65.8445 41.744H93.8125C94.2605 41.744 94.6445 41.36 94.6445 40.912V40.72H67.3805C67.1885 40.72 67.0605 40.656 66.9325 40.656ZM94.7085 9.04V2.512C94.7085 2.064 94.3245 1.744 93.8765 1.744H66.8045V2.384V40.08C66.8685 40.08 66.9325 40.144 67.0605 40.144C67.1245 40.144 67.2525 40.208 67.3805 40.208H94.6445V33.744C94.6445 33.296 94.2605 32.912 93.8125 32.912H74.9325V26.064H76.2125V24.528H87.7325V18.064C87.7325 17.616 87.3485 17.232 86.9005 17.232H74.9325V10.576H76.2125V9.04H94.7085ZM76.7245 10.576H93.8765C94.3245 10.576 94.7085 10.192 94.7085 9.744V9.552H76.7245V10.576ZM76.2125 10.576V16.208H88.4365C88.7565 16.208 89.0125 16.464 89.0125 16.784V23.952C89.0125 24.272 88.7565 24.528 88.4365 24.528H87.7325V25.04H88.4365C89.0765 25.04 89.5245 24.528 89.5245 23.952V16.784C89.5245 16.208 89.0765 15.696 88.4365 15.696H76.7245V10.576H76.2125ZM76.7245 26.064H86.9005C87.3485 26.064 87.7325 25.68 87.7325 25.232V25.04H76.7245V26.064ZM76.2125 31.888H95.3485C95.6685 31.888 95.9245 32.144 95.9245 32.464V39.632C95.9245 39.952 95.6685 40.208 95.3485 40.208H94.6445V40.72H95.3485C95.9245 40.72 96.4365 40.208 96.4365 39.632V32.464C96.4365 31.824 95.9245 31.376 95.3485 31.376H76.7245V26.064H76.2125V31.888ZM103.762 1.616C103.634 1.424 103.634 1.168 103.698 1.04C103.826 0.848 104.018 0.719997 104.21 0.719997H113.234C113.426 0.719997 113.618 0.783997 113.746 0.975998L118.866 10.704L119.186 10.128L114.194 0.719997H114.13C113.938 0.399998 113.618 0.207996 113.234 0.207996H104.21C103.826 0.207996 103.442 0.399998 103.25 0.783997C103.058 1.104 103.122 1.552 103.314 1.872L103.378 2H103.954L103.762 1.616ZM136.53 39.056L125.778 19.664L135.506 1.872C135.698 1.552 135.698 1.104 135.506 0.783997C135.314 0.399998 134.994 0.207996 134.61 0.207996H125.394C125.01 0.207996 124.69 0.399998 124.498 0.719997L123.794 2H123.986H124.37L124.946 0.975998C125.01 0.783997 125.202 0.719997 125.394 0.719997H134.61C134.802 0.719997 134.994 0.848 135.058 1.04C135.186 1.168 135.186 1.424 135.058 1.616L125.202 19.664L136.082 39.312C136.21 39.504 136.21 39.696 136.146 39.888C136.018 40.08 135.826 40.208 135.634 40.208H134.674L134.93 40.72H135.634C136.018 40.72 136.402 40.528 136.594 40.144C136.786 39.824 136.722 39.376 136.53 39.056ZM102.354 40.144C102.161 39.824 102.226 39.376 102.418 39.056L113.042 19.984L103.378 2H102.802C102.482 2 102.226 2.192 102.098 2.448C101.97 2.704 101.97 3.024 102.098 3.28L111.954 21.584L101.202 40.72C101.074 40.976 101.074 41.296 101.202 41.552C101.33 41.808 101.586 42 101.906 42H110.994C111.25 42 111.506 41.872 111.698 41.616L112.21 40.72H103.314C102.93 40.72 102.546 40.528 102.354 40.144ZM118.866 10.704L117.906 12.496L112.53 2.384C112.402 2.128 112.146 2 111.826 2H103.954L113.618 20.048L102.866 39.312C102.738 39.504 102.738 39.696 102.802 39.888C102.93 40.08 103.122 40.208 103.314 40.208H112.402H112.466L117.906 30.416L118.034 30.672L119.314 28.368L125.842 39.952C125.97 40.144 126.162 40.208 126.354 40.208H134.674L124.114 21.2L133.842 3.28C134.034 3.024 134.034 2.704 133.906 2.448C133.778 2.192 133.458 2 133.201 2H124.37L119.314 11.536L118.866 10.704ZM123.794 2C123.602 2.064 123.41 2.192 123.282 2.384L119.186 10.128L119.314 10.448L123.794 2ZM125.458 40.272L125.394 40.208L119.314 29.392L118.354 31.184L124.242 41.616C124.37 41.872 124.626 42 124.946 42H134.226C134.546 42 134.802 41.808 134.93 41.552C135.122 41.296 135.058 40.976 134.93 40.72H126.354C125.97 40.72 125.65 40.528 125.458 40.272ZM112.85 39.952C112.786 40.144 112.658 40.208 112.466 40.208L112.21 40.72H112.402C112.786 40.72 113.106 40.528 113.298 40.272V40.208L118.354 31.184L118.034 30.672L112.85 39.952Z" fill="#10002B"/>
</svg>
